# AST/ASF file generated using VICON BodyLanguage
# -----------------------------------------------
:version 1.10
:name VICON
:units
  mass 1.0
  length 0.45
  angle deg
:documentation
   .ast/.asf automatically generated from VICON data using
   VICON BodyBuilder and BodyLanguage model FoxedUp or BRILLIANT.MOD
:root
   order TX TY TZ RX RY RZ
   axis XYZ
   position 0 0 0  
   orientation 0 0 0 
:bonedata
  begin
     id 1 
     name lhipjoint
     direction 0.54267 -0.795011 0.271047 
     length 2.39899 
     axis 0 0 0  XYZ
  end
  begin
     id 2 
     name lfemur
     direction 0.34202 -0.939693 0  
     length 7.49701  
     axis 0 0 20  XYZ
    dof rx ry rz
    limits (-160.0 20.0)
           (-70.0 70.0)
           (-60.0 70.0)
  end
  begin
     id 3 
     name ltibia
     direction 0.34202 -0.939693 0   
     length 8.1668   
     axis 0 0 20   XYZ
    dof rx
    limits (-10.0 170.0)
  end
  begin
     id 4 
     name lfoot
     direction 0.0736283 -0.202292 0.976554   
     length 2.13544   
     axis -90 7.62852e-016 20   XYZ
    dof rx rz
    limits (-45.0 90.0)
           (-70.0 20.0)
  end
  begin
     id 5 
     name ltoes
     direction 1.53557e-011 -4.22024e-011 1   
     length 1.07411   
     axis -90 7.62852e-016 20   XYZ
    dof rx
    limits (-90.0 20.0)
  end
  begin
     id 6 
     name rhipjoint
     direction -0.538061 -0.797813 0.272002   
     length 2.39057  
     axis 0 0 0  XYZ 
  end
  begin
     id 7 
     name rfemur
     direction -0.34202 -0.939693 0   
     length 7.50152   
     axis 0 0 -20   XYZ
    dof rx ry rz
    limits (-160.0 20.0)
           (-70.0 70.0)
           (-70.0 60.0)
  end
  begin
     id 8 
     name rtibia
     direction -0.34202 -0.939693 0   
     length 8.05793   
     axis 0 0 -20   XYZ
    dof rx
    limits (-10.0 170.0)
 end
 begin
     id 9 
     name rfoot
     direction -0.0765195 -0.210236 0.974652   
     length 2.28698  
     axis -90 -7.62852e-016 -20   XYZ
    dof rx rz
    limits (-45.0 90.0)
           (-20.0 70.0)
  end
  begin
     id 10 
     name rtoes
     direction -1.53542e-011 -4.21847e-011 1   
     length 1.14762   
     axis -90 -7.62852e-016 -20   XYZ
    dof rx
    limits (-90.0 20.0)
  end
  begin
     id 11 
     name lowerback
     direction -0.0217239 0.996592 -0.0795765   
     length 2.08176   
     axis 0 0 0   XYZ
    dof rx ry rz
    limits (-20.0 45.0)
           (-30.0 30.0)
           (-30.0 30.0)
  end
  begin
     id 12 
     name upperback
     direction -0.00563773 0.999651 -0.0258155   
     length 2.08898   
     axis 0 0 0   XYZ
    dof rx ry rz
    limits (-20.0 45.0)
           (-30.0 30.0)
           (-30.0 30.0)
  end
  begin
     id 13 
     name thorax
     direction 0.0032706 0.999923 0.0119599   
     length 2.0968   
     axis 0 0 0   XYZ
    dof rx ry rz
    limits (-20.0 45.0)
           (-30.0 30.0)
           (-30.0 30.0)
  end
  begin
     id 14 
     name lowerneck
     direction -0.0285886 0.99568 0.0883427   
     length 1.81272   
     axis 0 0 0   XYZ
    dof rx ry rz
    limits (-20.0 45.0)
           (-30.0 30.0)
           (-30.0 30.0)
  end
  begin
     id 15 
     name upperneck
     direction 0.0807535 0.97985 -0.18268   
     length 1.82518   
     axis 0 0 0   XYZ
    dof rx ry rz
    limits (-20.0 45.0)
           (-30.0 30.0)
           (-30.0 30.0)
  end
  begin
     id 16
     name head
     direction 0.0236605 0.997053 -0.0729767  
     length 1.84443  
     axis 0 0 0   XYZ
    dof rx ry rz
    limits (-20.0 45.0)
           (-30.0 30.0)
           (-30.0 30.0)
  end
  begin
     id 17 
     name lclavicle
     direction 0.918986 0.39378 -0.0200683  
     length 3.27822  
     axis 0 0 0   XYZ
    dof ry rz
    limits (-20.0 10.0)
           (0.0 20.0)
  end
  begin
     id 18 
     name lhumerus
     direction 1 -4.4897e-011 2.09544e-027   
     length 5.5568   
     axis 180 -30 -90   XYZ
    dof rx ry rz
    limits (-60.0 90.0)
           (-90.0 90.0)
           (-90.0 90.0)
  end
  begin
     id 19
     name lradius
     direction 1 -4.48957e-011 -1.27696e-026   
     length 3.63979   
     axis 180 -30 -90   XYZ
    dof rx
    limits (-10.0 170.0)
  end
  begin
     id 20
     name lwrist
     direction 1 -4.49001e-011 -1.49001e-026   
     length 1.8199   
     axis 9.0955e-015 90 90   XYZ
    dof ry
    limits (-180.0 0.0)
 end
  begin
     id 21 
     name lhand
     direction 1 -4.48709e-011 -2.9758e-026   
     length 0.569419   
     axis 1.90115e-014 90 90   XYZ
    dof rx rz
    limits (-90.0 90.0)
           (-45.0 45.0)
  end
  begin
     id 22 
     name lfingers
     direction 1 -4.49175e-011 -5.96505e-026   
     length 0.45908   
     axis 3.80223e-014 90 90   XYZ
    dof rx
    limits (0.0 90.0)
  end
  begin
     id 23
     name lthumb
     direction 0.707107 -6.34864e-011 0.707107   
     length 0.65915   
     axis -90 45 -3.84942e-014   XYZ
    dof rx rz
    limits (-45.0 45.0)
           (-45.0 45.0)
  end
  begin
     id 24 
     name rclavicle
     direction -0.911913 0.396426 -0.106115   
     length 3.46301  
     axis 0 0 0   XYZ 
    dof ry rz
    limits (-10.0 20.0)
           (-20.0 0.0)
  end
  begin
     id 25 
     name rhumerus
     direction -1 -4.48965e-011 7.78516e-028  
     length 5.34339   
     axis 180 30 90   XYZ
    dof rx ry rz
    limits (-90.0 60.0)
           (-90.0 90.0)
           (-90.0 90.0)
  end
  begin
     id 26 
     name rradius
     direction -1 -4.48948e-011 -5.79823e-027   
     length 3.65101   
     axis 180 30 90   XYZ
    dof rx
    limits (-10.0 170.0)
  end
  begin
     id 27 
     name rwrist
     direction -1 -4.48995e-011 -1.48996e-026   
     length 1.8255   
     axis 9.0955e-015 -90 -90   XYZ
    dof ry
    limits (-180.0 0.0)
  end
  begin
     id 28
     name rhand
     direction -1 -4.48957e-011 -2.97937e-026   
     length 0.694249   
     axis 1.90115e-014 -90 -90   XYZ
    dof rx rz
    limits (-90.0 90.0)
           (-45.0 45.0)
  end
  begin
     id 29
     name rfingers
     direction -1 -4.4898e-011 -5.95943e-026   
     length 0.559721   
     axis 3.80223e-014 -90 -90   XYZ
    dof rx
    limits (0.0 90.0)
  end
  begin
     id 30
     name rthumb
     direction -0.707107 -6.34969e-011 0.707107   
     length 0.803651   
     axis -90 -45 3.84942e-014   XYZ
    dof rx rz
    limits (-45.0 45.0)
           (-45.0 45.0)
  end
:hierarchy
  begin
    root lhipjoint rhipjoint lowerback
    lhipjoint lfemur
    lfemur ltibia
    ltibia lfoot
    lfoot ltoes
    rhipjoint rfemur
    rfemur rtibia
    rtibia rfoot
    rfoot rtoes
    lowerback upperback
    upperback thorax
    thorax lowerneck lclavicle rclavicle
    lowerneck upperneck
    upperneck head
    lclavicle lhumerus
    lhumerus lradius
    lradius lwrist
    lwrist lhand lthumb
    lhand lfingers
    rclavicle rhumerus
    rhumerus rradius
    rradius rwrist
    rwrist rhand rthumb
    rhand rfingers
  end

#!OML:ASF H:\Terrain\Walking\May29\JustinRory\rory.ASF
:FULLY-SPECIFIED
:DEGREES
625
root 6.60434 18.9484 9.4124 -174.561 0.267827 -180.502
lowerback 3.11342 0.765392 -2.6145
upperback 1.25648 0.983909 -0.0859494
thorax -0.497923 0.503313 1.34259
lowerneck -12.6383 -3.99616 -3.7837
upperneck 9.41244 -5.11867 3.33025
head 5.07672 -2.42572 1.23393
rclavicle -7.45443e-017 -7.15625e-015
rhumerus -22.6606 31.1361 -102.528
rradius 111.901
rwrist -19.5533
rhand -29.0105 65.0523
rfingers 7.12502
rthumb -2.36183 35.0857
lclavicle -7.45443e-017 -7.15625e-015
lhumerus -25.506 -41.2753 110.6
lradius 119.287
lwrist 20.5584
lhand -33.0222 23.8008
lfingers 7.12502
lthumb -6.23563 53.689
rfemur -7.47679 10.5548 15.9162
rtibia 12.875
rfoot -5.1024 -19.7531
rtoes 15.4385
lfemur -4.94817 -4.49118 -17.2205
ltibia 9.76251
lfoot -9.25193 10.9015
ltoes -9.88932
626
root 6.59846 18.9473 9.39277 -174.453 0.224115 -180.997
lowerback 2.81306 0.691856 -3.10025
upperback 1.18383 0.879176 -0.220134
thorax -0.404567 0.448923 1.48419
lowerneck -12.7296 -3.95684 -4.05913
upperneck 9.76976 -5.06163 3.59621
head 5.21547 -2.38938 1.36128
rclavicle -1.01256e-014 1.88845e-015
rhumerus -22.5201 31.172 -102.068
rradius 112.114
rwrist -20.4613
rhand -27.8036 64.7924
rfingers 7.12502
rthumb -1.19619 34.816
lclavicle -1.01256e-014 1.88845e-015
lhumerus -25.3148 -41.0424 110.081
lradius 119.44
lwrist 20.2191
lhand -32.4943 23.9572
lfingers 7.12502
lthumb -5.72599 53.8598
rfemur -7.37782 10.6036 15.3144
rtibia 12.6662
rfoot -5.26934 -19.9596
rtoes 15.8623
lfemur -4.70373 -4.5971 -17.8022
ltibia 9.20799
lfoot -9.02849 11.0313
ltoes -10.3618
627
root 6.59546 18.9557 9.37517 -174.401 0.117624 -181.145
lowerback 2.68278 0.597404 -3.265
upperback 1.05361 0.746823 -0.22171
thorax -0.460794 0.382766 1.57973
lowerneck -12.8003 -3.88991 -4.27538
upperneck 10.2749 -4.96358 3.68682
head 5.38911 -2.34354 1.42804
rclavicle -1.98785e-016 3.67752e-015
rhumerus -22.6068 31.0536 -101.664
rradius 112.534
rwrist -21.3533
rhand -26.4797 64.3948
rfingers 7.12502
rthumb 0.0824127 34.4151
lclavicle -1.98785e-016 3.67752e-015
lhumerus -25.2994 -40.6826 109.557
lradius 119.886
lwrist 20.1692
lhand -32.1664 24.4929
lfingers 7.12502
lthumb -5.40943 54.4039
rfemur -7.17677 10.601 15.1543
rtibia 12.3544
rfoot -5.18889 -20.123
rtoes 16.0149
lfemur -4.45216 -4.72664 -17.9432
ltibia 8.68052
lfoot -8.73363 11.1178
ltoes -11.146
628
root 6.59251 18.9675 9.35734 -174.296 0.15573 -180.991
lowerback 2.4946 0.609115 -3.09317
upperback 0.848733 0.761616 -0.199973
thorax -0.56482 0.390633 1.50597
lowerneck -12.3645 -3.86065 -4.2834
upperneck 10.5088 -4.94749 3.61212
head 5.38729 -2.34936 1.41285
rclavicle 2.62147e-015 5.96354e-015
rhumerus -22.8416 30.6045 -101.312
rradius 113.049
rwrist -22.2402
rhand -25.0683 63.9704
rfingers 7.12502
rthumb 1.44561 33.9955
lclavicle 2.62147e-015 5.96354e-015
lhumerus -25.5032 -40.4479 109.088
lradius 120.306
lwrist 20.058
lhand -32.3243 24.6637
lfingers 7.12502
lthumb -5.56183 54.5707
rfemur -6.99689 10.6744 15.3013
rtibia 11.8704
rfoot -5.03944 -20.1903
rtoes 15.7935
lfemur -4.39035 -4.67923 -17.7768
ltibia 8.43713
lfoot -8.57164 11.1389
ltoes -11.7168
629
root 6.5852 18.9758 9.34238 -174.194 0.159418 -180.891
lowerback 2.28025 0.586195 -2.90185
upperback 0.750318 0.736839 -0.182072
thorax -0.542585 0.377042 1.41955
lowerneck -12.061 -3.84512 -4.28888
upperneck 10.5775 -4.92081 3.43141
head 5.35248 -2.35411 1.36406
rclavicle -1.1368e-014 1.05356e-014
rhumerus -22.7465 30.2951 -100.703
rradius 113.433
rwrist -23.2395
rhand -23.6316 63.6261
rfingers 7.12502
rthumb 2.83312 33.6652
lclavicle -1.1368e-014 1.05356e-014
lhumerus -25.1403 -40.1109 108.308
lradius 120.506
lwrist 19.8716
lhand -33.1019 24.5839
lfingers 7.12502
lthumb -6.31264 54.4698
rfemur -6.7456 10.7932 15.3671
rtibia 11.2359
rfoot -4.78832 -20.2805
rtoes 15.8311
lfemur -4.50345 -4.67483 -17.6991
ltibia 8.57711
lfoot -8.72837 11.0734
ltoes -11.5677
630
root 6.57605 18.9763 9.33138 -174.159 -0.00898898 -180.844
lowerback 2.16174 0.486848 -2.77751
upperback 0.721953 0.571267 -0.121952
thorax -0.497938 0.27693 1.41714
lowerneck -12.0883 -3.81141 -4.3423
upperneck 10.7596 -4.8437 3.21659
head 5.40681 -2.33381 1.31034
rclavicle -3.29237e-015 5.06901e-015
rhumerus -22.5279 30.113 -99.9677
rradius 113.876
rwrist -24.3011
rhand -22.129 63.2198
rfingers 7.12502
rthumb 4.28425 33.2832
lclavicle -3.29237e-015 5.06901e-015
lhumerus -24.4005 -39.4383 107.403
lradius 120.701
lwrist 19.7608
lhand -33.6085 25.013
lfingers 7.12502
lthumb -6.80167 54.8838
rfemur -6.39475 10.8491 15.4022
rtibia 10.5995
rfoot -4.53802 -20.4664
rtoes 16.3097
lfemur -4.59544 -4.85071 -17.675
ltibia 8.83089
lfoot -9.0201 10.9339
ltoes -10.5545
631
root 6.57331 18.9613 9.32125 -174.227 -0.0287347 -180.892
lowerback 2.11698 0.435286 -2.87761
upperback 0.72755 0.502535 -0.0861899
thorax -0.465153 0.242135 1.51206
lowerneck -12.0976 -3.79546 -4.38799
upperneck 10.8994 -4.80786 3.12397
head 5.44951 -2.32554 1.29061
rclavicle -1.44119e-015 1.54058e-015
rhumerus -22.2111 29.6433 -99.2164
rradius 114.313
rwrist -25.3741
rhand -20.4905 62.7607
rfingers 7.12502
rthumb 5.86625 32.8619
lclavicle -1.44119e-015 1.54058e-015
lhumerus -23.9385 -38.5822 106.646
lradius 120.827
lwrist 19.3148
lhand -33.5974 24.919
lfingers 7.12502
lthumb -6.79095 54.7901
rfemur -6.03244 10.8015 15.3747
rtibia 10.206
rfoot -4.36054 -20.4356
rtoes 16.1533
lfemur -4.43599 -4.89377 -17.7824
ltibia 8.8137
lfoot -9.14125 10.9032
ltoes -9.89109
632
root 6.57618 18.9506 9.31219 -174.328 0.0346869 -180.908
lowerback 2.11076 0.435687 -2.97524
upperback 0.756348 0.501292 -0.0635715
thorax -0.433088 0.24041 1.59018
lowerneck -12.0314 -3.79483 -4.39601
upperneck 10.8953 -4.79779 3.04028
head 5.43487 -2.32774 1.26769
rclavicle 5.34234e-016 1.39149e-015
rhumerus -21.9263 29.0221 -98.5308
rradius 114.662
rwrist -26.3819
rhand -18.7733 62.4365
rfingers 7.12502
rthumb 7.52397 32.5904
lclavicle 5.34234e-016 1.39149e-015
lhumerus -23.4199 -37.7741 105.741
lradius 120.772
lwrist 19.0457
lhand -34.1283 23.7289
lfingers 7.12502
lthumb -7.3034 53.5828
rfemur -5.73789 10.8785 15.4067
rtibia 10.005
rfoot -4.17143 -20.5406
rtoes 15.6458
lfemur -4.16153 -4.84699 -17.818
ltibia 8.59759
lfoot -9.14947 10.9728
ltoes -10.0228
633
root 6.5726 18.9651 9.30427 -174.382 -0.111432 -180.869
lowerback 2.09111 0.387663 -2.86674
upperback 0.773283 0.440471 -0.0621235
thorax -0.400948 0.209482 1.53257
lowerneck -11.8016 -3.82353 -4.38019
upperneck 10.6385 -4.82941 2.96093
head 5.31504 -2.34916 1.24346
rclavicle 1.42876e-015 -4.07509e-015
rhumerus -21.7479 28.3396 -97.9418
rradius 115.07
rwrist -27.2885
rhand -17.0066 62.1371
rfingers 7.12502
rthumb 9.22898 32.3591
lclavicle 1.42876e-015 -4.07509e-015
lhumerus -22.604 -37.2007 104.571
lradius 120.934
lwrist 19.3287
lhand -34.5483 23.4744
lfingers 7.12502
lthumb -7.70882 53.3139
rfemur -5.47719 10.814 15.491
rtibia 9.66856
rfoot -3.89944 -20.7056
rtoes 15.3413
lfemur -4.02618 -4.99928 -17.7516
ltibia 8.50795
lfoot -9.17705 10.9614
ltoes -9.85953
634
root 6.56763 18.978 9.29661 -174.428 -0.261424 -180.736
lowerback 2.05466 0.351058 -2.64891
upperback 0.788272 0.398249 -0.0374013
thorax -0.361933 0.188229 1.43709
lowerneck -11.6089 -3.86254 -4.37882
upperneck 10.3762 -4.88031 2.95573
head 5.20282 -2.37489 1.24271
rclavicle 8.69683e-016 6.06293e-015
rhumerus -21.3499 27.4926 -97.3191
rradius 115.387
rwrist -28.2135
rhand -15.1218 61.7763
rfingers 7.12502
rthumb 11.0473 32.087
lclavicle 8.69683e-016 6.06293e-015
lhumerus -21.883 -36.7012 103.432
lradius 121.312
lwrist 19.4827
lhand -34.6805 23.9833
lfingers 7.12502
lthumb -7.83642 53.8181
rfemur -5.17673 10.7529 15.6575
rtibia 9.21593
rfoot -3.77298 -20.7277
rtoes 15.657
lfemur -3.9415 -5.14697 -17.6006
ltibia 8.48315
lfoot -9.18964 10.9662
ltoes -9.18148
635
root 6.57259 18.9693 9.2869 -174.475 -0.277135 -180.61
lowerback 1.98393 0.352438 -2.61882
upperback 0.810083 0.404184 0.0329366
thorax -0.300515 0.190456 1.49265
lowerneck -11.495 -3.8608 -4.4568
upperneck 10.2682 -4.87594 3.02902
head 5.15389 -2.37174 1.2812
rclavicle 2.86374e-015 6.65929e-015
rhumerus -20.9115 26.5433 -96.7028
rradius 115.605
rwrist -29.1291
rhand -13.1086 61.5093
rfingers 7.12502
rthumb 12.9886 31.9336
lclavicle 2.86374e-015 6.65929e-015
lhumerus -21.3625 -36.0531 102.474
lradius 121.598
lwrist 19.779
lhand -35.3468 23.391
lfingers 7.12502
lthumb -8.47942 53.2008
rfemur -4.89549 10.8273 15.8346
rtibia 8.96847
rfoot -4.11717 -20.6995
rtoes 17.3644
lfemur -3.7369 -5.16051 -17.4536
ltibia 8.27039
lfoot -9.09472 11.0524
ltoes -8.8646
636
root 6.5769 18.9605 9.27769 -174.546 -0.266241 -180.63
lowerback 1.96782 0.352919 -2.74098
upperback 0.82307 0.403242 0.0649437
thorax -0.279143 0.189258 1.59412
lowerneck -11.2663 -3.79699 -4.58678
upperneck 10.1102 -4.79096 3.15742
head 5.06985 -2.32903 1.35406
rclavicle -4.51614e-015 1.68967e-015
rhumerus -20.8113 25.5712 -96.2078
rradius 115.929
rwrist -29.9559
rhand -11.0002 61.4224
rfingers 7.12502
rthumb 15.0203 31.9872
lclavicle -4.51614e-015 1.68967e-015
lhumerus -21.0126 -35.2985 101.67
lradius 121.767
lwrist 20.4364
lhand -36.2933 22.8432
lfingers 7.12502
lthumb -9.39284 52.6139
rfemur -4.61785 10.9138 15.848
rtibia 8.75649
rfoot -4.30689 -20.7448
rtoes 17.9786
lfemur -3.54186 -5.16084 -17.4821
ltibia 8.12411
lfoot -9.00819 11.1089
ltoes -9.38912
637
root 6.57406 18.9672 9.27588 -174.646 -0.204675 -180.644
lowerback 2.07723 0.383166 -2.73689
upperback 0.841444 0.439215 0.0501203
thorax -0.323193 0.207161 1.57522
lowerneck -11.0993 -3.76538 -4.59553
upperneck 9.90366 -4.75002 3.1804
head 4.97712 -2.30864 1.37025
rclavicle -2.48481e-016 -2.73329e-015
rhumerus -20.8664 24.5986 -95.8122
rradius 116.421
rwrist -30.6887
rhand -8.82877 61.3533
rfingers 7.12502
rthumb 17.1113 32.0868
lclavicle -2.48481e-016 -2.73329e-015
lhumerus -20.713 -34.7459 100.962
lradius 121.743
lwrist 21.1806
lhand -37.5555 22.1658
lfingers 7.12502
lthumb -10.6105 51.8779
rfemur -4.44214 11.0494 15.8265
rtibia 8.53705
rfoot -4.04836 -20.853
rtoes 17.3164
lfemur -3.4187 -5.11699 -17.5295
ltibia 8.11469
lfoot -9.06722 11.1072
ltoes -9.7455
638
root 6.57153 18.9756 9.27808 -174.719 -0.233336 -180.71
lowerback 2.1831 0.415951 -2.76418
upperback 0.865224 0.477626 0.0176295
thorax -0.359896 0.225927 1.55568
lowerneck -10.8921 -3.83316 -4.56808
upperneck 9.61461 -4.84149 3.15459
head 4.85542 -2.3547 1.35626
rclavicle 2.50344e-015 -2.03754e-015
rhumerus -20.8361 23.6982 -95.5024
rradius 116.76
rwrist -31.2843
rhand -6.63888 61.346
rfingers 7.12502
rthumb 19.2181 32.2756
lclavicle 2.50344e-015 -2.03754e-015
lhumerus -20.4744 -34.4699 100.487
lradius 121.571
lwrist 22.0923
lhand -38.911 20.942
lfingers 7.12502
lthumb -11.9178 50.5828
rfemur -4.44209 11.089 15.7605
rtibia 8.62179
rfoot -4.06904 -20.9615
rtoes 17.4684
lfemur -3.31934 -5.16486 -17.5972
ltibia 7.98799
lfoot -9.02441 11.1477
ltoes -9.70159
